PathFileType	4	(x/y/z)	S06_M20_T14
DataRate	CameraRate	NumFrames	NumMarkers	Units	OrigDataRate	OrigDataStartFrame	OrigNumFrames
240	240	4	51	mm	240	123	488
Frame#	Time	Sternum			R.Acromium			L.Acromium			Top.Head			R.ASIS			L.ASIS			R.PSIS			L.PSIS			R.Great.Tro			L.Great.Tro			R.Iliac.Crest			L.Iliac.Crest			V.Sacral			R.Thigh.Upper.Post			R.Thigh.Lower.Ant			R.Thigh.Lower.Post			R.Thigh.Upper.Ant			R.Knee.Lat			R.Knee.Med			R.Shank.Upper.Post			R.Shank.Lower.Ant			R.Shank.Lower.Post			R.Shank.Upper.Ant			R.Ankle.Lat			R.Ankle.Med			R.Heel.Upper			R.Heel.Med			R.Heel.Lat			R.Toe.Lat			R.Toe.Med			R.Toe.Tip			L.Thigh.Upper.Post			L.Thigh.Lower.Ant			L.Thigh.Lower.Post			L.Thigh.Upper.Ant			L.Knee.Lat			L.Knee.Med			L.Shank.Upper.Post			L.Shank.Lower.Ant			L.Shank.Lower.Post			L.Shank.Upper.Ant			L.Ankle.Lat			L.Ankle.Med			L.Heel.Upper			L.Heel.Med			L.Heel.Lat			L.Toe.Lat			L.Toe.Med			L.Toe.Tip			Cervical.Spine			Back			
		X1	Y1	Z1	X2	Y2	Z2	X3	Y3	Z3	X4	Y4	Z4	X5	Y5	Z5	X6	Y6	Z6	X7	Y7	Z7	X8	Y8	Z8	X9	Y9	Z9	X10	Y10	Z10	X11	Y11	Z11	X12	Y12	Z12	X13	Y13	Z13	X14	Y14	Z14	X15	Y15	Z15	X16	Y16	Z16	X17	Y17	Z17	X18	Y18	Z18	X19	Y19	Z19	X20	Y20	Z20	X21	Y21	Z21	X22	Y22	Z22	X23	Y23	Z23	X24	Y24	Z24	X25	Y25	Z25	X26	Y26	Z26	X27	Y27	Z27	X28	Y28	Z28	X29	Y29	Z29	X30	Y30	Z30	X31	Y31	Z31	X32	Y32	Z32	X33	Y33	Z33	X34	Y34	Z34	X35	Y35	Z35	X36	Y36	Z36	X37	Y37	Z37	X38	Y38	Z38	X39	Y39	Z39	X40	Y40	Z40	X41	Y41	Z41	X42	Y42	Z42	X43	Y43	Z43	X44	Y44	Z44	X45	Y45	Z45	X46	Y46	Z46	X47	Y47	Z47	X48	Y48	Z48	X49	Y49	Z49	X50	Y50	Z50	X51	Y51	Z51	

123	0.50833	-898.77	1290.3	321.79	-1036	1493.4	486.57	-1034.8	1493.8	136.16	-997.82	1810.3	310.47	-937	1052.9	438.96	-926.36	1053.6	185.72	NaN	NaN	NaN	-1134.3	1072.3	262.36	-985.43	973.81	486.65	-1029.6	986.07	129.14	-1029.7	1120	471.2	-1003	1126.2	150.41	-1147.7	1033.3	303.79	-891.26	746.26	483.24	-806.5	694.04	449.84	-865.72	660.95	465.83	-828.93	781.94	460.63	-804.76	568.86	457.24	-795.82	570.98	328.19	-829.59	341.84	457.21	-761.7	283.27	446.18	-825.88	264.72	444.63	-767.53	358.94	456.33	-779.21	133.89	426.09	-754.77	143.34	345.55	-827.27	77.47	370.67	-805.56	51.551	342.01	-816.11	47.15	405.55	-649.92	76.834	470.35	-611.63	98.787	357.08	-559.89	126.11	411.95	-1022.7	726.13	159.51	-988.51	638.12	216.98	-1057.7	643.95	179.04	-958.36	725.69	193.04	-1098.3	550.8	196.87	-1069.7	554.64	316.82	-1186.6	330.78	217.83	-1131.3	260.5	220	-1202.7	261.56	238	-1120.2	328.87	205.54	-1172.2	115.4	241.95	-1163.7	135.43	331.02	-1259.7	82.252	286.16	-1259.3	53.073	316.08	-1254.3	59.531	254.69	-1075	45.996	222.18	-1060.8	40.246	342.08	-983.17	46.214	290.7	-1088.8	1545	311.36	-1145.7	1270.9	308.54
124	0.5125	-893.73	1289.5	322.01	-1031	1492.6	486.82	-1029.9	1493.3	136.42	-992.73	1809.7	310.86	-932.01	1052.1	439.05	-921.48	1052.8	185.83	NaN	NaN	NaN	-1129.1	1071.7	262.47	-980.63	973.01	486.78	-1024.8	985.54	129.22	-1024.9	1119.3	471.32	-998.01	1125.5	150.51	-1142.5	1032.7	303.89	-888.08	745.17	483.35	-802.81	692.59	449.83	-862.21	659.66	465.7	-824.97	780.5	460.72	-800.94	567.68	456.84	-791.77	569.98	327.78	-820.86	340.18	456.35	-751.57	283.14	445.54	-815.33	263.18	443.65	-759.21	358.67	455.82	-765.39	133.31	425.12	-740.7	143.63	344.79	-811.72	75.777	369.4	-789.26	50.585	340.64	-799.87	45.537	404.13	-634.6	79.114	469.43	-596.69	102.96	356.54	-545.81	131.32	411.72	-1019.9	725.76	159.49	-986.05	637.5	216.85	-1055.2	643.77	179.06	-955.46	724.94	192.92	-1096.4	550.82	196.9	-1067.7	554.49	316.82	-1185.6	331.13	217.96	-1130.6	260.66	220.05	-1202	261.96	238.13	-1119.2	328.97	205.6	-1172.4	115.62	242.12	-1163.4	135.67	331.09	-1259.6	82.648	286.31	-1259.3	53.493	316.22	-1254.2	59.895	254.83	-1075	45.976	222.22	-1060.6	40.25	342.1	-983.18	46.045	290.73	-1083.7	1544.4	311.57	-1140.4	1270.2	308.61
125	0.51667	-888.67	1288.8	322.23	-1026	1491.8	487.07	-1025	1492.7	136.68	-987.62	1809	311.25	-927	1051.3	439.14	-916.6	1052	185.93	NaN	NaN	NaN	-1123.9	1071.1	262.6	-975.8	972.19	486.91	-1020.1	985	129.31	-1020	1118.6	471.45	-993	1124.8	150.61	-1137.3	1032	304.01	-884.97	744.06	483.48	-799.16	691.09	449.83	-858.74	658.34	465.55	-821.02	779	460.82	-797.21	566.46	456.42	-787.78	568.94	327.35	-812.25	338.59	455.49	-741.63	283.08	444.89	-804.92	261.74	442.65	-751.03	358.43	455.3	-751.78	132.89	424.16	-726.87	144.1	344.03	-796.38	74.311	368.13	-773.18	49.864	339.27	-783.85	44.16	402.7	-619.58	81.545	468.53	-582.09	107.27	356.04	-532.09	136.63	411.52	-1017	725.39	159.46	-983.53	636.89	216.71	-1052.8	643.59	179.08	-952.5	724.2	192.8	-1094.5	550.85	196.94	-1065.6	554.33	316.81	-1184.6	331.5	218.08	-1129.9	260.82	220.1	-1201.2	262.37	238.26	-1118.3	329.07	205.65	-1172.6	115.88	242.3	-1163	135.92	331.16	-1259.4	83.084	286.45	-1259.4	53.956	316.34	-1254.1	60.29	254.97	-1075	45.955	222.26	-1060.4	40.256	342.11	-983.18	45.875	290.76	-1078.7	1543.8	311.79	-1135.1	1269.5	308.7
126	0.52083	-883.6	1288.1	322.46	-1021	1491.1	487.32	-1020.1	1492.1	136.95	-982.49	1808.3	311.66	-921.97	1050.4	439.24	-911.7	1051.1	186.04	NaN	NaN	NaN	-1118.8	1070.4	262.75	-970.96	971.36	487.05	-1015.3	984.45	129.4	-1015	1117.9	471.59	-987.97	1124	150.73	-1132.2	1031.4	304.16	-881.88	742.92	483.6	-795.53	689.54	449.82	-855.31	656.99	465.38	-817.09	777.47	460.94	-793.56	565.2	455.98	-783.84	567.87	326.88	-803.78	337.06	454.62	-731.87	283.09	444.23	-794.68	260.41	441.66	-743	358.24	454.77	-738.4	132.63	423.21	-713.31	144.72	343.27	-781.26	73.067	366.86	-757.36	49.377	337.91	-768.05	43.014	401.28	-604.89	84.12	467.67	-567.85	111.69	355.56	-518.73	142.01	411.37	-1014	725.02	159.44	-980.95	636.28	216.56	-1050.2	643.41	179.1	-949.49	723.45	192.67	-1092.5	550.88	196.98	-1063.5	554.17	316.81	-1183.5	331.88	218.2	-1129.1	260.99	220.15	-1200.4	262.8	238.39	-1117.2	329.18	205.7	-1172.8	116.18	242.47	-1162.5	136.18	331.22	-1259.3	83.564	286.58	-1259.4	54.463	316.46	-1254	60.718	255.09	-1074.9	45.933	222.3	-1060.2	40.266	342.12	-983.19	45.705	290.8	-1073.6	1543.1	312.02	-1129.8	1268.8	308.79
